<svg width="300" height="36" viewBox="0 0 300 36" fill="none" xmlns="http://www.w3.org/2000/svg">
<path fill-rule="evenodd" clip-rule="evenodd" d="M152.535 0.222824C151.609 0.705717 149.657 2.49155 146.982 5.30491C144.398 8.02314 142.401 10.3533 138.813 14.8412C135.652 18.7946 135.234 19.2425 134.24 19.7465C131.754 21.006 130.666 19.3617 132.688 17.4009C133.225 16.8796 133.995 16.4565 134.405 16.4565C134.512 16.4565 134.798 16.6312 135.041 16.8448C135.573 17.3116 135.647 17.3185 136.009 16.9336C136.386 16.5317 136.364 16.1446 135.943 15.8138C135.501 15.4661 135.134 15.5367 133.799 16.226C132.096 17.1053 130.336 19.0083 130.336 19.9703C130.336 20.7137 131.16 21.3375 131.928 21.1761C132.156 21.1282 132.832 20.8614 133.431 20.5835C134.029 20.3055 134.544 20.1032 134.575 20.1339C134.605 20.1646 133.733 21.4318 132.635 22.9501C127.745 29.7151 125.404 33.1912 125.137 34.0814C124.862 35.0009 125.346 34.8751 125.876 33.8893C126.979 31.8388 135.393 20.0805 135.757 20.0805C135.806 20.0805 135.91 20.2526 135.99 20.4629C136.174 20.9503 136.64 21.0751 137.558 20.8825C138.66 20.6514 139.542 20.1779 140.447 19.3311C141.454 18.3892 142.021 17.4212 142.038 16.6165C142.06 15.5475 141.276 15.3076 139.611 15.8737C139.266 15.9909 138.952 16.0553 138.914 16.0167C138.838 15.9409 139.396 15.2263 142.106 11.9265C146.081 7.08712 150.993 1.83406 152.631 0.670901C153.483 0.0659581 153.417 -0.237419 152.535 0.222824ZM9.12485 4.68521C7.09421 4.99739 4.86309 5.87892 3.55067 6.88742C1.82536 8.2134 0.788749 10.533 0.951702 12.7031C1.08864 14.5271 1.7565 15.8906 3.15267 17.1966C4.49706 18.4542 6.19351 19.2217 10.225 20.3961C13.5805 21.3737 14.0753 21.5753 14.7407 22.2362C15.3004 22.792 15.3077 22.8107 15.2372 23.4947C15.1526 24.3141 14.7692 25.1259 14.2878 25.5045C14.0981 25.6537 13.5577 25.8948 13.087 26.0403C12.1452 26.3313 11.6518 26.3021 10.5452 25.8908C9.37762 25.4567 8.02754 23.7224 8.02275 22.6502C8.02042 22.1566 7.92529 21.9732 7.61129 21.8575C7.39514 21.7779 2.38385 21.9553 0.80894 22.0984L0 22.1719V22.7234C0 23.5253 0.453524 25.1781 0.976423 26.2817C1.33197 27.0322 1.67703 27.4855 2.55988 28.3622C3.18075 28.9787 4.00911 29.6638 4.40064 29.8847C7.86199 31.837 14.8065 31.9016 18.5733 30.0162C21.2105 28.6963 22.7649 26.7516 23.0558 24.4081C23.2198 23.0874 23.0164 20.674 22.6529 19.6276C22.3117 18.6454 21.9649 18.1242 21.062 17.2378C19.5615 15.7647 18.2219 15.1941 13.2833 13.9245C11.5127 13.4693 9.88215 12.9906 9.65965 12.8606C9.11242 12.5411 8.67184 11.8535 8.67184 11.3191C8.67184 10.4693 9.84137 9.73313 11.1957 9.73042C12.6851 9.72731 13.8951 10.6183 14.6435 12.2689C15.0878 13.2486 14.6497 13.1913 18.9561 12.8332C21.2173 12.6451 22.1078 12.5245 22.2446 12.3877C22.3994 12.233 22.4082 12.0571 22.2949 11.3838C21.8766 8.89639 20.3443 6.96197 17.7967 5.70549C16.0751 4.85645 15.0569 4.65299 12.2959 4.60627C10.9789 4.584 9.55197 4.61947 9.12485 4.68521ZM24.9801 17.9449V30.6935L27.8599 30.6943C29.4439 30.6946 31.2203 30.7324 31.8075 30.7781L32.8753 30.8612V25.7944V20.7276H37.1465H41.4177V25.7752V30.8229H45.3654H49.313V18.0096V5.19632H45.3654H41.4177V9.53213V13.8679H37.1465H32.8753V9.53213V5.19632H28.9277H24.9801V17.9449ZM51.9016 7.65544V10.1146H55.5742H59.2468L59.3277 9.7101C59.3722 9.48761 59.4086 8.38101 59.4086 7.25098V5.19632H55.6551H51.9016V7.65544ZM61.9972 18.0096V30.8229H65.9448H69.8924V25.7918V20.7606L74.7469 20.7046C78.2098 20.6646 79.6446 20.605 79.7525 20.4972C79.9221 20.3275 79.9916 15.6521 79.8302 15.2593C79.744 15.0492 79.3811 15.0328 74.8148 15.0328H69.8924V12.962V10.8911H75.569H81.2454L81.3287 10.0955C81.3744 9.65807 81.4118 8.37674 81.4118 7.24813V5.19632H71.7045H61.9972V18.0096ZM86.6453 5.29534C86.4816 5.40833 86.3305 5.81072 82.1654 17.2331C78.4954 27.2977 77.5823 29.8391 77.4644 30.317L77.3817 30.6523L79.3526 30.7376C80.4366 30.7845 82.2625 30.8229 83.4102 30.8229H85.4968L85.9365 29.1727C86.1784 28.2652 86.4271 27.3325 86.4892 27.1002L86.6021 26.6779L91.0828 26.7119L95.5637 26.746L96.0792 28.7197L96.5949 30.6935H100.717C102.984 30.6935 104.839 30.6694 104.839 30.6399C104.839 30.5828 102.075 23.005 100.633 19.1097C100.159 17.8284 99.0998 14.9163 98.2796 12.6384C96.2546 7.01426 95.6398 5.40742 95.4697 5.29534C95.2814 5.17121 86.8253 5.17121 86.6453 5.29534ZM51.9016 21.4394V30.8229H55.6551H59.4086V21.4394V12.056H55.6551H51.9016V21.4394ZM92.2931 16.5911C92.9449 18.6882 93.4862 20.4874 93.4959 20.5892C93.5056 20.6911 93.3679 20.8162 93.1899 20.8675C92.7908 20.9824 88.5304 21.0174 88.5304 20.9058C88.5304 20.8274 90.7997 13.2062 90.9303 12.8464C90.9663 12.7472 91.0209 12.6913 91.0517 12.7221C91.0827 12.7529 91.6412 14.494 92.2931 16.5911ZM243.847 14.9709C242.15 15.5822 240.539 16.4162 240.14 16.8894L239.807 17.2859L240.094 17.5183C240.252 17.6462 240.506 17.7517 240.658 17.7527C240.81 17.7539 241.021 17.8093 241.127 17.876C241.288 17.9782 241.265 18.0548 240.979 18.3595C240.793 18.5585 240.602 18.8471 240.556 19.0008C240.46 19.3202 240.094 19.5174 240.094 19.2499C240.094 19.1218 239.703 19.2085 238.637 19.5731C237.837 19.8472 237.079 20.0735 236.955 20.0759C236.67 20.0816 236.643 20.5982 236.928 20.5982C237.038 20.5982 237.672 20.3943 238.337 20.1452C239.609 19.6689 239.905 19.6035 239.765 19.8294C239.575 20.1369 239.987 20.7152 240.55 20.9299C241.07 21.1287 241.183 21.1283 242.187 20.9255C242.78 20.8058 244.025 20.4501 244.954 20.1352C245.883 19.8203 246.677 19.5627 246.717 19.5627C246.758 19.5627 246.824 19.723 246.863 19.9187C246.965 20.421 247.416 20.8573 247.832 20.8555C248.32 20.8533 249.944 20.1223 251.045 19.4099C251.552 19.0821 252.087 18.7496 252.233 18.671C252.486 18.5357 252.494 18.5502 252.383 18.9396C252.226 19.4852 252.36 20.2592 252.669 20.5901C253.121 21.0763 254.513 20.8555 256.96 19.9093C257.786 19.5899 257.836 19.5842 257.761 19.8195C257.602 20.322 258.11 20.9116 258.818 21.0459C259.647 21.2032 263.796 20.0493 264.253 19.5341C264.487 19.2705 264.486 19.2674 264.168 19.3391C263.99 19.3792 263.321 19.5621 262.682 19.7456C261.053 20.2135 260.083 20.2886 259.508 19.9911C259.157 19.8094 259.046 19.6654 259.015 19.3484C258.983 19.0135 259.054 18.8801 259.411 18.6081C259.65 18.4256 260.113 18.1581 260.44 18.0136C261.466 17.5597 261.384 17.0638 260.261 16.9308C259.365 16.8247 259.238 16.6677 259.782 16.3355C260.347 15.99 261.979 15.3087 262.483 15.208C262.862 15.1321 262.871 15.1414 262.792 15.5343C262.715 15.9204 262.73 15.9388 263.128 15.9388C263.9 15.9388 264.653 15.1384 264.292 14.703C263.921 14.2558 262.317 14.6415 259.929 15.7524C258.309 16.5061 257.955 16.7715 257.955 17.2332C257.955 17.6255 258.025 17.669 258.903 17.8248L259.398 17.9127L259 18.3232C258.781 18.5491 258.602 18.8213 258.602 18.9283C258.602 19.1363 258.358 19.4333 258.188 19.4333C258.131 19.4333 258.084 19.3519 258.084 19.2524C258.084 19.1167 257.647 19.2147 256.338 19.6434C254.519 20.239 254.053 20.2707 253.81 19.8153C253.602 19.4276 253.666 18.5963 253.963 17.8213C254.157 17.3128 254.201 17.0511 254.106 16.9565C253.922 16.7727 253.688 16.9092 252.005 18.1837C250.489 19.3313 249.673 19.7957 248.97 19.9097C248.566 19.9754 248.497 19.9399 248.263 19.546C247.804 18.7731 247.707 18.7066 247.496 19.0245C247.276 19.3546 247.055 19.398 247.174 19.0872C247.241 18.9131 247.208 18.8913 247.008 18.9759C245.701 19.5283 243.146 20.2099 242.383 20.2099C241.839 20.2099 241.299 19.9482 241.145 19.6105C240.895 19.0629 241.195 18.656 242.229 18.139C242.984 17.7618 243.135 17.6327 243.135 17.3666C243.135 17.0898 243.057 17.033 242.553 16.9417C241.125 16.6836 241.121 16.6576 242.4 16.0184C243.439 15.4995 244.607 15.1019 244.729 15.2254C244.778 15.2747 244.818 15.4409 244.818 15.5945C244.818 15.811 244.905 15.882 245.206 15.9093C245.737 15.9574 246.436 15.5118 246.436 15.1253C246.436 14.3787 245.625 14.3303 243.847 14.9709ZM225.914 14.9555C224.291 15.4639 222.337 17.0346 221.66 18.376C221.355 18.9788 221.218 19.107 220.574 19.3922C219.631 19.81 217.981 20.2338 217.676 20.137C217.546 20.0957 217.351 19.8899 217.242 19.6794C217.016 19.2418 217.087 18.6399 217.461 17.8168C217.744 17.1929 217.766 16.8448 217.522 16.8448C217.423 16.8448 216.622 17.3768 215.742 18.0272C213.347 19.7983 212.374 20.1744 211.932 19.5002C211.667 19.0964 211.821 18.5791 212.403 17.9163C212.877 17.3771 213.124 16.8819 212.986 16.7472C212.829 16.5933 210.755 18.8478 210.588 19.3535C210.4 19.9255 210.68 20.5523 211.18 20.678C211.776 20.8276 213.201 20.2501 214.931 19.1572C215.367 18.882 215.757 18.6568 215.797 18.6568C215.837 18.6568 215.86 19.011 215.848 19.4439C215.827 20.1593 215.858 20.2596 216.188 20.5441C216.436 20.7574 216.709 20.857 217.047 20.857C217.588 20.857 219.079 20.4436 220.444 19.9154C221.371 19.5567 221.365 19.555 221.715 20.2532C222.049 20.918 222.959 21.1881 224.133 20.971C224.733 20.8601 228.017 19.898 228.732 19.6236C228.846 19.5798 228.967 19.7199 229.076 20.0203C229.275 20.5702 229.683 20.7911 230.29 20.6774C230.888 20.5652 232.672 19.6901 233.633 19.0377C234.065 18.7442 234.445 18.5304 234.477 18.5625C234.509 18.5946 234.472 18.7864 234.395 18.9889C234.214 19.4654 234.347 20.2356 234.671 20.5833C234.849 20.7735 235.084 20.857 235.442 20.857C235.949 20.857 235.955 20.8618 235.764 21.1526C235.486 21.5768 233.982 22.6775 232.814 23.3121C232.262 23.6116 231.779 23.9085 231.74 23.9719C231.636 24.1399 231.919 24.6104 232.123 24.6104C232.731 24.6104 236.718 21.1049 236.368 20.8789C236.275 20.819 236.239 20.6747 236.286 20.552C236.342 20.4073 236.255 20.2254 236.032 20.0185C235.606 19.6245 235.579 18.8927 235.952 17.9111C236.485 16.5089 236.28 16.5154 234.378 17.9608C232.088 19.7021 230.883 20.1748 230.443 19.5044C230.174 19.0938 230.274 18.7871 230.985 17.835C231.519 17.1205 231.685 16.7153 231.444 16.7153C231.385 16.7153 230.879 17.1857 230.32 17.7606C229.579 18.5215 229.349 18.8345 229.473 18.9109C229.566 18.9688 229.603 19.0809 229.554 19.16C229.446 19.3346 229.13 19.3501 229.07 19.1838C229.047 19.1178 228.503 19.2356 227.862 19.4455C226.448 19.9091 225.098 20.2109 224.456 20.207C223.189 20.1995 222.344 19.2627 222.64 18.1926C222.921 17.1755 225.038 15.478 226.135 15.3901C226.769 15.3395 226.739 15.6632 226.037 16.4435C225.316 17.2453 225.391 17.5391 226.209 17.1217C227.308 16.5608 227.857 15.4903 227.302 14.9881C227.025 14.7373 226.64 14.7282 225.914 14.9555ZM292.178 15.4756C291.684 15.6909 291.219 16.2642 291.219 16.6581C291.219 17.0564 291.783 17.7034 292.409 18.0228C293.037 18.3432 292.988 18.4229 291.65 19.257C291.033 19.6416 290.493 19.8769 290.135 19.9171C289.613 19.976 289.569 19.9559 289.414 19.5814C289.155 18.9553 288.917 18.8181 288.679 19.1578C288.519 19.3854 288.398 19.4259 288.064 19.3632C287.773 19.3084 287.219 19.4236 286.217 19.7474C285.431 20.0018 284.701 20.2099 284.595 20.2099C284.49 20.2099 284.277 20.075 284.122 19.9104C283.766 19.5308 283.759 18.9355 284.1 17.9449C284.599 16.4953 284.451 16.5005 282.447 18.0029C280.654 19.3479 279.822 19.8216 279.253 19.8216C278.747 19.8216 278.534 19.6202 278.534 19.14C278.534 18.6942 278.693 18.376 279.266 17.6727C279.674 17.172 279.83 16.7153 279.592 16.7153C279.533 16.7153 279.027 17.1857 278.468 17.7606C277.673 18.577 277.492 18.8311 277.637 18.9208C277.794 19.0184 277.788 19.0698 277.596 19.2622C277.384 19.4743 277.369 19.4747 277.369 19.2669C277.369 19.1448 277.355 19.0453 277.337 19.0456C277.319 19.0459 276.635 19.2787 275.816 19.5627C274.154 20.1396 273.167 20.2422 273.043 19.851C272.935 19.5119 273.129 18.9569 273.796 17.6928C274.372 16.5991 274.43 16.3271 274.085 16.3271C273.804 16.3271 272.853 17.2285 272.503 17.8263L272.168 18.3979H270.627C269.779 18.3979 269.086 18.3476 269.086 18.2859C269.086 18.2243 269.201 18.0273 269.342 17.8482C269.738 17.3453 269.878 16.8896 269.687 16.7305C269.568 16.6325 269.037 16.8769 267.72 17.6356C266.727 18.2074 265.798 18.7936 265.656 18.9383L265.397 19.2015L265.721 19.1063C265.899 19.054 266.436 18.8149 266.915 18.5751C267.393 18.3353 267.852 18.139 267.934 18.139C268.015 18.139 267.804 18.4646 267.464 18.8623C266.453 20.0454 266.161 20.857 266.746 20.857C267.003 20.857 267.459 20.3903 268.024 19.5502L268.424 18.9551L269.499 18.8715C270.091 18.8254 270.886 18.7873 271.268 18.787C271.878 18.7863 271.95 18.8134 271.867 19.0127C271.815 19.1373 271.744 19.5053 271.709 19.8305C271.662 20.2738 271.701 20.4762 271.864 20.6395C272.299 21.0748 273.636 20.8645 275.837 20.0144C276.488 19.7634 277.027 19.5736 277.037 19.5928C277.046 19.6118 277.152 19.8444 277.273 20.1094C277.536 20.6898 277.944 20.8292 278.708 20.6004C279.406 20.3913 280.765 19.7047 281.783 19.047C282.226 18.7606 282.607 18.5448 282.63 18.5677C282.653 18.5905 282.618 18.7955 282.553 19.0233C282.394 19.5767 282.519 20.2604 282.841 20.6066C283.249 21.0446 284.429 20.9024 286.365 20.1823L287.918 19.6044L288.012 19.9435C288.137 20.3995 288.581 20.857 288.898 20.857C289.695 20.857 291.821 19.866 293.107 18.8953C293.496 18.6017 293.845 18.3926 293.883 18.4305C293.921 18.4683 293.859 18.7215 293.746 18.9929C293.498 19.5841 293.58 20.0662 294.003 20.5232C294.457 21.0127 295.188 20.9678 297.091 20.3337C298.736 19.7852 299.9 19.2265 299.992 18.9407C300.033 18.813 299.924 18.8235 299.548 18.9836C297.871 19.6958 296.463 20.2167 296.024 20.287C295.608 20.3535 295.467 20.3167 295.229 20.0783C294.974 19.8233 294.947 19.6944 295.006 18.9962C295.043 18.5603 295.094 18.1164 295.119 18.0096C295.155 17.8616 295.051 17.819 294.682 17.8301L294.197 17.8449L294.278 17.161C294.387 16.2304 294.273 15.8785 293.76 15.5612C293.261 15.2528 292.753 15.2254 292.178 15.4756ZM146.681 15.5649C145.686 15.8523 143.485 17.9972 142.717 19.427C142.229 20.3358 142.183 20.7447 142.52 21.1726C142.787 21.5119 142.852 21.5311 143.511 21.4631C144.33 21.3786 145.262 20.9493 146.229 20.2109C146.838 19.746 146.945 19.7062 147.2 19.8489C147.357 19.9372 147.832 20.0399 148.255 20.0773L149.024 20.1452L147.465 21.2691C145.031 23.0234 143.126 24.6288 140.974 26.7372C138.153 29.5016 136.959 31.1347 136.35 33.0623C135.983 34.2263 135.955 34.6998 136.223 35.219C136.789 36.3123 138.607 35.902 140.71 34.2065C142.285 32.9366 143.817 31.1185 148.524 24.934C151.925 20.465 153.383 18.6548 154.11 17.9975C155.113 17.0924 158.08 16.2996 158.425 16.8448C158.835 17.4918 158.036 18.6816 156.805 19.2576C155.883 19.6888 155.255 19.6628 154.799 19.1745C154.368 18.7137 154.291 18.704 153.846 19.0545C153.074 19.6615 153.656 20.443 154.757 20.2778C156.241 20.0555 158.524 18.8637 159.414 17.848C159.638 17.5916 159.864 17.1912 159.915 16.9584C159.996 16.5893 159.956 16.4887 159.602 16.1723C159.032 15.6631 158.225 15.6841 156.546 16.2515C155.834 16.4921 155.233 16.6713 155.21 16.65C155.188 16.6285 155.291 16.3712 155.441 16.0782C155.677 15.616 155.686 15.5354 155.514 15.4692C155.055 15.2929 154.66 15.5722 153.894 16.6158C153.166 17.6076 152.731 17.9914 151.686 18.5652C151.372 18.7378 151.301 18.835 151.41 18.9436C151.519 19.0523 151.644 19.0496 151.9 18.9331C152.089 18.847 152.268 18.8004 152.297 18.8297C152.366 18.8993 149.775 22.5215 147.599 25.3947C144.242 29.8284 141.285 33.1114 139.64 34.2309C138.737 34.8449 138.013 34.9782 137.665 34.5943C137.469 34.3771 137.434 34.1748 137.477 33.5019C137.539 32.5232 138.319 30.8021 139.364 29.3345C141.126 26.8601 145.007 23.4097 149.039 20.7329C150.931 19.4767 150.958 19.4472 149.88 19.7894C149.774 19.8233 149.861 19.7021 150.075 19.5202L150.463 19.1891L149.686 19.3713C148.667 19.6104 148.061 19.608 147.713 19.3639L147.429 19.165L148.006 18.3811C148.618 17.5498 148.899 16.8435 148.825 16.3214C148.788 16.0591 148.698 15.9966 148.308 15.964C147.307 15.8807 146.426 17.1941 146.542 18.595C146.598 19.2701 146.578 19.3374 146.217 19.6409C145.683 20.0903 144.647 20.5982 144.264 20.5982C143.841 20.5982 143.538 20.2763 143.538 19.8272C143.538 18.9882 145.63 16.6156 146.885 16.0302C147.658 15.6694 147.64 15.6861 147.418 15.5455C147.199 15.4072 147.229 15.4064 146.681 15.5649ZM200.311 15.5645C199.272 15.8086 197.761 16.7342 196.617 17.828C196.005 18.4123 195.534 18.92 195.569 18.9562C195.774 19.1642 196.466 18.7726 197.377 17.9334C198.571 16.8344 199.158 16.4372 200.027 16.1421C201.103 15.7767 201.4 16.0797 200.813 16.9439C200.393 17.5624 200.569 17.7759 201.214 17.4287C201.839 17.0922 202.17 16.6383 202.17 16.12C202.17 15.4483 201.57 15.2689 200.311 15.5645ZM293.702 16.1025C293.937 16.4733 293.63 17.8802 293.314 17.8802C293.094 17.8802 292.509 17.3424 292.309 16.9563C292.073 16.4998 292.171 16.0959 292.557 15.9337C292.901 15.7888 293.564 15.8865 293.702 16.1025ZM177.704 16.9223C176.583 18.005 176.038 18.7635 176.277 18.9108C176.543 19.0752 176.304 19.3139 175.96 19.2275C175.768 19.1793 175.136 19.3284 174.284 19.6223C173.29 19.9657 172.749 20.0838 172.303 20.0551C171.713 20.0173 171.688 19.9993 171.648 19.5897C171.618 19.2744 171.778 18.844 172.263 17.9362C172.624 17.2613 172.919 16.6231 172.919 16.518C172.919 16.0396 172.239 16.4217 170.218 18.0352C168.454 19.4442 167.852 19.8216 167.366 19.8216C166.917 19.8216 167.04 19.3762 167.795 18.2742C168.58 17.128 168.739 16.7547 168.531 16.5471C168.321 16.3366 167.531 16.7658 165.865 17.996C164.275 19.1705 162.847 19.951 162.289 19.951C161.989 19.951 161.877 19.8602 161.692 19.4657C161.525 19.11 161.372 18.9697 161.121 18.9406C160.748 18.8974 160.364 19.2964 160.364 19.7274C160.364 20.1409 160.746 20.7211 161.072 20.8029C161.749 20.9727 163.551 20.1516 165.526 18.7739C166.128 18.3538 166.64 18.0293 166.663 18.0528C166.687 18.0763 166.443 18.5567 166.12 19.1204C165.385 20.4067 165.397 20.6493 166.2 20.7014C166.94 20.7496 167.903 20.2729 169.799 18.9192C170.524 18.4013 171.148 18.0072 171.184 18.0437C171.221 18.08 171.102 18.4759 170.92 18.9234C170.581 19.7579 170.505 20.3947 170.708 20.7146C170.892 21.0057 172.074 20.8133 173.788 20.213C174.627 19.9192 175.403 19.6492 175.512 19.613C175.646 19.5687 175.783 19.6984 175.931 20.0078C176.127 20.4201 176.204 20.4687 176.657 20.4687C177.397 20.4687 178.681 20.0319 179.703 19.4327C180.195 19.144 180.644 18.9243 180.701 18.9441C180.815 18.9836 178.918 21.8836 178.46 22.3716C178.297 22.5454 177.791 22.7832 177.263 22.9346C170.889 24.7622 166.274 28.4056 165.224 32.4401C164.694 34.4724 165.152 36 166.291 36C167.313 36 168.289 35.3433 170.411 33.2275C172.359 31.2864 174.031 29.2731 176.996 25.3006L178.549 23.2198L179.391 23.1395C179.853 23.0953 181.295 23.0587 182.594 23.0582L184.956 23.0573V22.7337V22.4101L182.723 22.3988C181.496 22.3925 180.215 22.3489 179.878 22.3017L179.265 22.216L180.451 20.5982C183.094 16.9917 183.403 16.5476 183.403 16.3598C183.403 16.2363 183.152 16.3849 182.723 16.7627C180.75 18.5011 178.839 19.6922 178.022 19.6922C177.458 19.6922 177.011 19.2827 177.132 18.8767C177.27 18.4137 177.846 17.4698 178.377 16.8365C178.65 16.5115 178.873 16.2058 178.873 16.157C178.873 15.9088 178.503 16.1505 177.704 16.9223ZM140.662 16.658C141.552 17.2816 140.341 19.2758 138.511 20.1998C137.594 20.6624 137.044 20.7043 136.679 20.3393C136.078 19.7389 136.471 18.8258 137.884 17.5358C138.928 16.5831 140.049 16.2287 140.662 16.658ZM148.183 16.5738C148.472 16.7572 148.249 17.5148 147.726 18.1265C147.143 18.807 146.978 18.6894 147.104 17.6837C147.227 16.6944 147.664 16.2451 148.183 16.5738ZM191.37 16.9988C191.231 17.0793 190.519 17.6004 189.786 18.1568C187.686 19.753 186.263 20.3433 186.06 19.7028C186.016 19.5664 185.863 19.3048 185.719 19.1215C185.469 18.8035 185.44 18.7973 185.079 18.9838C184.682 19.189 184.491 19.6344 184.622 20.0484C184.757 20.4735 185.21 20.8571 185.576 20.8555C186.102 20.853 187.739 20.094 189.023 19.2566C189.65 18.848 190.19 18.541 190.223 18.5742C190.257 18.6074 190.215 18.7628 190.131 18.9194C189.922 19.3111 190.079 20.2319 190.417 20.5953C190.661 20.8568 190.778 20.8817 191.48 20.8213C191.914 20.7839 192.865 20.5482 193.594 20.2975C194.885 19.8533 195.133 19.8461 194.976 20.2571C194.852 20.5806 195.486 21.1159 195.993 21.1159C196.577 21.1159 197.671 20.7809 198.571 20.327L199.307 19.9554L199.347 20.3739C199.386 20.7741 199.414 20.794 199.998 20.8315C200.431 20.8595 200.998 20.7403 201.952 20.421C203.603 19.8686 205.018 19.2374 205.018 19.0532C205.018 18.875 205.182 18.8332 203.266 19.4975C202.169 19.878 201.369 20.0797 200.955 20.0799L200.322 20.0805L200.399 19.4333C200.441 19.0774 200.445 18.7862 200.409 18.7862C200.372 18.7862 199.802 19.0771 199.142 19.4328C198.466 19.7971 197.688 20.1144 197.359 20.1594C196.835 20.2314 196.749 20.2047 196.505 19.8946C196.356 19.7049 196.214 19.4908 196.19 19.4187C196.161 19.332 196.02 19.3359 195.772 19.4302C195.51 19.5297 195.371 19.5316 195.312 19.4363C195.257 19.3463 194.823 19.4331 194.043 19.6901C192.889 20.0705 192.038 20.1766 191.727 19.9787C191.483 19.8237 191.291 19.1883 191.373 18.8096C191.415 18.6187 191.565 18.1803 191.706 17.8353C192.057 16.9795 191.933 16.672 191.37 16.9988ZM116.423 17.4429C114.235 17.7154 113.584 17.8907 113.449 18.243C113.315 18.5907 113.558 18.6525 114.484 18.5065C115.251 18.3856 119.023 18.4151 122.376 18.5684C122.843 18.5897 122.898 18.559 122.933 18.2617C123.011 17.5909 122.765 17.5307 119.658 17.4597C118.092 17.4238 116.636 17.4163 116.423 17.4429ZM177.579 23.5539C177.579 23.8342 173.851 28.7305 172.038 30.8309C170.384 32.7472 168.443 34.594 167.709 34.9493C166.597 35.4873 166.112 34.9129 166.216 33.183C166.323 31.398 167.194 29.7131 168.907 27.974C170.88 25.9707 173.521 24.4794 176.478 23.699C177.545 23.4173 177.579 23.4129 177.579 23.5539Z" fill="url(#paint0_linear_79_457)"/>
<defs>
<linearGradient id="paint0_linear_79_457" x1="146.839" y1="11.8426" x2="-1.61788" y2="11.8426" gradientUnits="userSpaceOnUse">
<stop offset="0.229294"/>
<stop offset="0.256692" stop-color="#B51310"/>
</linearGradient>
</defs>
</svg>
